<svg xmlns="http://www.w3.org/2000/svg" viewBox="0 0 79.98 83.33"><defs><style>.cls-1{fill:#fff;}</style></defs><g id="레이어_2" data-name="레이어 2"><g id="레이어_1-2" data-name="레이어 1"><path class="cls-1" d="M79.88,32.32a1.75,1.75,0,0,0-1.64-1.15H51.67l-10-30.11a1.82,1.82,0,0,0-3.3,0l-10,30.11H1.74A1.74,1.74,0,0,0,.63,34.25l20,16.63L10.52,81A1.72,1.72,0,0,0,11,82.76l4.63-6,8.65-26A1.74,1.74,0,0,0,23.72,49L6.54,34.65h23a1.74,1.74,0,0,0,1.65-1.19L40,7.11l8.78,26.35a1.74,1.74,0,0,0,1.65,1.19h23L56.26,49a1.74,1.74,0,0,0-.53,1.89l8.67,26L41,59.34A1.74,1.74,0,0,0,40,59s-.07,0-.11,0v4L40,62.9,66.77,83a1.71,1.71,0,0,0,1,.34,1.77,1.77,0,0,0,1-.33,1.74,1.74,0,0,0,.63-2L59.4,50.88,79.35,34.25A1.75,1.75,0,0,0,79.88,32.32Z"/></g></g></svg>