<svg xmlns="http://www.w3.org/2000/svg" viewBox="0 0 369.62 56.38"><defs><style>.cls-1{fill:#fff;}</style></defs><g id="레이어_2" data-name="레이어 2"><g id="레이어_1-2" data-name="레이어 1"><polygon class="cls-1" points="95.74 2.72 88.62 2.72 88.62 12.22 82.28 12.22 82.28 18.31 88.62 18.31 88.62 55.56 95.74 55.56 95.74 18.31 104.07 18.31 104.07 12.22 95.74 12.22 95.74 2.72"/><rect class="cls-1" x="150.66" width="7.12" height="55.56"/><rect class="cls-1" x="165.08" width="7.11" height="55.56"/><polygon class="cls-1" points="240.67 24.41 263.45 0 254.41 0 230.88 25.16 230.88 0 223.92 0 223.92 55.6 230.88 55.6 230.88 34.13 235.77 29.2 257.67 55.6 267.25 55.6 240.67 24.41"/><path class="cls-1" d="M355.27,12.16a14.24,14.24,0,0,0-12,6.3V12.39h-7.13V55.56h7.13v-20c0-5,.19-9.4,1.08-11.91,1.19-3.36,4.4-4.83,9.34-4.8,3.74,0,6.23,1.28,7.5,3.87.86,1.81,1.31,4.81,1.31,9V55.56h7.15v-25Q369.62,12.18,355.27,12.16Z"/><path class="cls-1" d="M332.89,14.82c-4-2.52-6.64-2.66-7.63-2.66A9,9,0,0,0,319.55,14a18.57,18.57,0,0,0-3.66,4V12.39h-7.11V55.56h7.11V34.44c-.12-9,1.88-15.13,7.66-15.43a8.72,8.72,0,0,1,5.1,1.72Z"/><path class="cls-1" d="M195.63,10.83a10,10,0,0,0-7,2.55,8.42,8.42,0,0,0-2.73,6.43,10.43,10.43,0,0,0,1.41,4.62,27.46,27.46,0,0,0,3.64,5l.12.14-.14.11-2,1.56c-3.2,2.47-6,4.6-7.21,6.52a9.86,9.86,0,0,0-1.55,5.42,12.85,12.85,0,0,0,3.58,9.43c2.53,2.53,5.59,3.54,9.33,3.76a12.94,12.94,0,0,0,7.67-1.92,34.45,34.45,0,0,0,4-3c.73-.61,1.5-1.24,2.29-1.88l.13-.11,4.89,6h5.84l-7.26-8.73,6-5.37-2.74-3.43-6,5.39-.11-.13L197.28,30.33l.13-.11L199,29a24.25,24.25,0,0,0,4.28-3.82,8.89,8.89,0,0,0,1.88-5.53A8.18,8.18,0,0,0,203,13.75,9.94,9.94,0,0,0,195.63,10.83ZM194.16,52a8.85,8.85,0,0,1-6.57-2.44,8.61,8.61,0,0,1-3-6.38,6.26,6.26,0,0,1,1.77-4.3,38.61,38.61,0,0,1,5.11-4.2l2.13-1.59.13-.1,10.55,13-.13.11c-.66.52-1.34,1.1-2,1.66a40.12,40.12,0,0,1-3.56,2.81A9,9,0,0,1,194.16,52Zm.3-25.12-.11-.12a17.51,17.51,0,0,1-3.24-4.85,6.51,6.51,0,0,1-.47-2.8,4,4,0,0,1,1.4-3,5.07,5.07,0,0,1,3.41-1.19,5.21,5.21,0,0,1,3.6,1.33,4,4,0,0,1,1.47,3.11,5.48,5.48,0,0,1-1.2,3.22,18.28,18.28,0,0,1-3.47,3.19l-1.27,1Z"/><path class="cls-1" d="M136.81,42.61q-4.62,7.06-11.76,7.06a12.78,12.78,0,0,1-9.78-4.1,14.48,14.48,0,0,1-3.91-10h32.86q.53-9.88-4.64-16.61c-3.67-4.81-8.77-7.22-15.22-7.22q-9.42,0-15.06,6.76c-3.5,4.2-5.23,9.54-5.23,16.09a22.26,22.26,0,0,0,5.64,15.5c3.77,4.16,8.71,6.21,14.82,6.21,8.2,0,14.43-3.52,18.63-10.61ZM111.72,29.47a12.29,12.29,0,0,1,4.34-7.83,12.54,12.54,0,0,1,8.39-3.23,11.63,11.63,0,0,1,8.1,3.17,13,13,0,0,1,4.17,7.89Z"/><path class="cls-1" d="M295.63,42.61q-4.62,7.06-11.76,7.06a12.75,12.75,0,0,1-9.77-4.1,14.44,14.44,0,0,1-3.92-10H303q.52-9.88-4.64-16.61c-3.67-4.81-8.77-7.22-15.21-7.22S271.88,14,268.12,18.5c-3.5,4.2-5.23,9.54-5.23,16.09a22.22,22.22,0,0,0,5.65,15.5c3.76,4.16,8.7,6.21,14.81,6.21,8.2,0,14.44-3.52,18.64-10.61ZM270.54,29.47a12.3,12.3,0,0,1,4.35-7.83,12.53,12.53,0,0,1,8.39-3.23,11.61,11.61,0,0,1,8.09,3.17,13.11,13.11,0,0,1,4.18,7.89Z"/><path class="cls-1" d="M25,.13,0,56.24H1.43L37.13,37,44.64,55.6h8.61L28.5.13Zm9.4,30.68-17.91,10L13.6,43,26,15.1l.73-2.35.73,2.38Z"/><path class="cls-1" d="M75.39,32.48c-.89-.49-2.8-1.48-8.44-4-3.42-1.5-5.14-3.05-5.14-5.16a4.65,4.65,0,0,1,1.63-3.56A5.54,5.54,0,0,1,67,18.37c2.58,0,4.49,1.42,6,4.93l6-3.14c-1.46-2.63-2.74-4.67-4.58-6.1a11.38,11.38,0,0,0-6.88-2.35,12.83,12.83,0,0,0-8.93,3.38A11.16,11.16,0,0,0,55,23.64a11.08,11.08,0,0,0,5.26,8.89c3.16,1.85,5.83,2.91,8.88,4.34,3.31,1.64,5.65,3.39,5.18,6.72A6.8,6.8,0,0,1,72,48a6.31,6.31,0,0,1-4.74,1.65c-3.71,0-6.6-2.24-8.64-6.74l-6.39,2.7a16.48,16.48,0,0,0,5.67,7.85,15.51,15.51,0,0,0,9.27,2.82,14.4,14.4,0,0,0,10.14-3.9,12.41,12.41,0,0,0,4.19-9.27A10.87,10.87,0,0,0,75.39,32.48Z"/></g></g></svg>